<svg width="128" height="128" viewBox="0 0 128 128" fill="none" xmlns="http://www.w3.org/2000/svg">
<g clip-path="url(#clip0_1316_33)">
<mask id="mask0_1316_33" style="mask-type:luminance" maskUnits="userSpaceOnUse" x="0" y="0" width="128" height="128">
<path d="M104 0H24C10.7452 0 0 10.7452 0 24V104C0 117.255 10.7452 128 24 128H104C117.255 128 128 117.255 128 104V24C128 10.7452 117.255 0 104 0Z" fill="white"/>
</mask>
<g mask="url(#mask0_1316_33)">
<path d="M104 0H24C10.7452 0 0 10.7452 0 24V104C0 117.255 10.7452 128 24 128H104C117.255 128 128 117.255 128 104V24C128 10.7452 117.255 0 104 0Z" fill="#560303"/>
<path d="M32.064 104V43.744H49.536V104H32.064ZM40.8 35.344C37.5894 35.344 34.976 34.4106 32.96 32.544C30.944 30.6773 29.936 28.3626 29.936 25.6C29.936 22.8373 30.944 20.5226 32.96 18.656C34.976 16.7893 37.5894 15.856 40.8 15.856C44.0107 15.856 46.624 16.752 48.64 18.544C50.656 20.2613 51.664 22.5013 51.664 25.264C51.664 28.176 50.656 30.6026 48.64 32.544C46.6987 34.4106 44.0854 35.344 40.8 35.344ZM90.3912 104.896C83.2984 104.896 77.7728 103.104 73.8156 99.5199C69.8582 95.8615 67.8796 90.4479 67.8796 83.2799V30.416H85.3512V83.0559C85.3512 85.5943 86.0232 87.5735 87.3672 88.9919C88.7112 90.3359 90.5408 91.008 92.8552 91.008C95.6184 91.008 97.9704 90.2615 99.9112 88.7679L104.615 101.088C102.823 102.358 100.658 103.328 98.1192 104C95.6552 104.598 93.0792 104.896 90.3912 104.896ZM58.5836 58.528V45.088H100.359V58.528H58.5836Z" fill="white"/>
</g>
</g>
<defs>
<clipPath id="clip0_1316_33">
<rect width="128" height="128" fill="white"/>
</clipPath>
</defs>
</svg>
