<svg width="30" height="30" viewBox="0 0 30 30" fill="none" xmlns="http://www.w3.org/2000/svg">
<path d="M4.98303 22.4237C4.98303 21.1021 5.50803 19.8347 6.44253 18.9002C7.37704 17.9657 8.6445 17.4407 9.96608 17.4407H19.9322C21.2538 17.4407 22.5212 17.9657 23.4557 18.9002C24.3902 19.8347 24.9152 21.1021 24.9152 22.4237C24.9152 23.0845 24.6527 23.7182 24.1855 24.1855C23.7182 24.6528 23.0845 24.9153 22.4237 24.9153H7.47456C6.81376 24.9153 6.18003 24.6528 5.71278 24.1855C5.24553 23.7182 4.98303 23.0845 4.98303 22.4237Z" stroke="#A3A3A3" stroke-opacity="0.55" stroke-width="3" stroke-linejoin="round"/>
<path d="M14.9491 12.4576C17.0131 12.4576 18.6864 10.7844 18.6864 8.72032C18.6864 6.65627 17.0131 4.98303 14.9491 4.98303C12.885 4.98303 11.2118 6.65627 11.2118 8.72032C11.2118 10.7844 12.885 12.4576 14.9491 12.4576Z" stroke="#A3A3A3" stroke-opacity="0.55" stroke-width="3"/>
</svg>
