<svg width="30" height="30" viewBox="0 0 30 30" fill="none" xmlns="http://www.w3.org/2000/svg">
<path d="M25.3348 9.28717L18.7946 2.74692C18.6644 2.6166 18.5099 2.51322 18.3397 2.44268C18.1696 2.37214 17.9872 2.33582 17.803 2.33582H6.59118C5.97168 2.33582 5.37756 2.58191 4.93951 3.01996C4.50146 3.45801 4.25537 4.05213 4.25537 4.67162V25.2267C4.25537 25.8462 4.50146 26.4403 4.93951 26.8784C5.37756 27.3164 5.97168 27.5625 6.59118 27.5625H23.409C24.0285 27.5625 24.6226 27.3164 25.0606 26.8784C25.4987 26.4403 25.7448 25.8462 25.7448 25.2267V10.2776C25.7448 9.90615 25.5973 9.54994 25.3348 9.28717ZM18.7374 6.65705L21.4235 9.34323H18.7374V6.65705ZM7.05834 24.7595V5.13878H15.9344V10.7447C15.9344 11.1164 16.0821 11.4729 16.3449 11.7357C16.6077 11.9985 16.9642 12.1462 17.3359 12.1462H22.9418V24.7595H7.05834Z" fill="#A3A3A3" fill-opacity="0.55"/>
</svg>
