<svg width="30" height="30" viewBox="0 0 30 30" fill="none" xmlns="http://www.w3.org/2000/svg">
<path d="M15.0509 21.178C15.7116 21.178 16.3454 21.4405 16.8126 21.9077C17.2799 22.375 17.5424 23.0087 17.5424 23.6695C17.5424 24.3303 17.2799 24.964 16.8126 25.4313C16.3454 25.8985 15.7116 26.161 15.0509 26.161C14.3901 26.161 13.7563 25.8985 13.2891 25.4313C12.8218 24.964 12.5593 24.3303 12.5593 23.6695C12.5593 23.0087 12.8218 22.375 13.2891 21.9077C13.7563 21.4405 14.3901 21.178 15.0509 21.178ZM15.0509 12.4576C15.7116 12.4576 16.3454 12.7201 16.8126 13.1874C17.2799 13.6546 17.5424 14.2884 17.5424 14.9491C17.5424 15.6099 17.2799 16.2437 16.8126 16.7109C16.3454 17.1782 15.7116 17.4407 15.0509 17.4407C14.3901 17.4407 13.7563 17.1782 13.2891 16.7109C12.8218 16.2437 12.5593 15.6099 12.5593 14.9491C12.5593 14.2884 12.8218 13.6546 13.2891 13.1874C13.7563 12.7201 14.3901 12.4576 15.0509 12.4576ZM15.0509 3.73728C15.7116 3.73728 16.3454 3.99978 16.8126 4.46703C17.2799 4.93428 17.5424 5.56801 17.5424 6.22881C17.5424 6.8896 17.2799 7.52333 16.8126 7.99058C16.3454 8.45783 15.7116 8.72033 15.0509 8.72033C14.3901 8.72033 13.7563 8.45783 13.2891 7.99058C12.8218 7.52333 12.5593 6.8896 12.5593 6.22881C12.5593 5.56801 12.8218 4.93428 13.2891 4.46703C13.7563 3.99978 14.3901 3.73728 15.0509 3.73728Z" fill="#A3A3A3" fill-opacity="0.55"/>
</svg>
